HIERARCHY
ROOT hip
{
  OFFSET 0 0 0
  CHANNELS 6 Xposition Yposition Zposition Zrotation Yrotation Xrotation
  JOINT abdomen
  {
    OFFSET 0 20.6881 -0.73152
    CHANNELS 3 Zrotation Xrotation Yrotation
    JOINT chest
    {
      OFFSET 0 11.7043 -0.48768
      CHANNELS 3 Zrotation Xrotation Yrotation
      JOINT neck
      {
        OFFSET 0 22.1894 -2.19456
        CHANNELS 3 Zrotation Xrotation Yrotation
        JOINT head
        {
          OFFSET -0.24384 7.07133 1.2192
          CHANNELS 3 Zrotation Xrotation Yrotation
          JOINT leftEye
          {
            OFFSET 4.14528 8.04674 8.04672
            CHANNELS 3 Zrotation Xrotation Yrotation
            End Site
            {
              OFFSET 1 0 0
            }
          }
          JOINT rightEye
          {
            OFFSET -3.6576 8.04674 8.04672
            CHANNELS 3 Zrotation Xrotation Yrotation
            End Site
            {
              OFFSET 1 0 0
            }
          }
        }
      }
      JOINT rCollar
      {
        OFFSET -2.68224 19.2634 -4.8768
        CHANNELS 3 Zrotation Xrotation Yrotation
        JOINT rShldr
        {
          OFFSET -8.77824 -1.95073 1.46304
          CHANNELS 3 Zrotation Xrotation Yrotation
          JOINT rForeArm
          {
            OFFSET -28.1742 -1.7115 0.48768
            CHANNELS 3 Zrotation Xrotation Yrotation
            JOINT rHand
            {
              OFFSET -22.5879 0.773209 7.07136
              CHANNELS 3 Zrotation Xrotation Yrotation
              JOINT rThumb1
              {
                OFFSET -1.2192 -0.487915 3.41376
                CHANNELS 3 Zrotation Xrotation Yrotation
                JOINT rThumb2
                {
                  OFFSET -3.37035 -0.52449 3.41376
                  CHANNELS 3 Zrotation Xrotation Yrotation
                  End Site
                  {
                    OFFSET -1.78271 -1.18214 1.43049
                  }
                }
              }
              JOINT rIndex1
              {
                OFFSET -7.75947 0.938293 5.60832
                CHANNELS 3 Zrotation Xrotation Yrotation
                JOINT rIndex2
                {
                  OFFSET -2.54057 -0.884171 1.56538
                  CHANNELS 3 Zrotation Xrotation Yrotation
                  End Site
                  {
                    OFFSET -1.62519 -0.234802 1.16502
                  }
                }
              }
              JOINT rMid1
              {
                OFFSET -8.24714 1.18213 3.41376
                CHANNELS 3 Zrotation Xrotation Yrotation
                JOINT rMid2
                {
                  OFFSET -3.10165 -0.590103 1.0647
                  CHANNELS 3 Zrotation Xrotation Yrotation
                  End Site
                  {
                    OFFSET -2.48547 -0.328903 0.83742
                  }
                }
              }
              JOINT rRing1
              {
                OFFSET -8.82822 0.546677 1.51678
                CHANNELS 3 Zrotation Xrotation Yrotation
                JOINT rRing2
                {
                  OFFSET -2.60934 -0.819778 -0.0198488
                  CHANNELS 3 Zrotation Xrotation Yrotation
                  End Site
                  {
                    OFFSET -2.33842 -0.294052 0.168128
                  }
                }
              }
              JOINT rPinky1
              {
                OFFSET -8.27202 -0.0477905 -0.4584
                CHANNELS 3 Zrotation Xrotation Yrotation
                JOINT rPinky2
                {
                  OFFSET -1.82734 -0.647385 -0.700984
                  CHANNELS 3 Zrotation Xrotation Yrotation
                  End Site
                  {
                    OFFSET -1.69225 -0.51767 -0.607171
                  }
                }
              }
            }
          }
        }
      }
      JOINT lCollar
      {
        OFFSET 2.68224 19.2634 -4.8768
        CHANNELS 3 Zrotation Xrotation Yrotation
        JOINT lShldr
        {
          OFFSET 8.77824 -1.95073 1.46304
          CHANNELS 3 Zrotation Xrotation Yrotation
          JOINT lForeArm
          {
            OFFSET 28.1742 -1.7115 0.48768
            CHANNELS 3 Zrotation Xrotation Yrotation
            JOINT lHand
            {
              OFFSET 22.5879 0.773209 7.07136
              CHANNELS 3 Zrotation Xrotation Yrotation
              JOINT lThumb1
              {
                OFFSET 1.2192 -0.487915 3.41376
                CHANNELS 3 Zrotation Xrotation Yrotation
                JOINT lThumb2
                {
                  OFFSET 3.37035 -0.52449 3.41376
                  CHANNELS 3 Zrotation Xrotation Yrotation
                  End Site
                  {
                    OFFSET 1.78271 -1.18214 1.43049
                  }
                }
              }
              JOINT lIndex1
              {
                OFFSET 7.75947 0.938293 5.60832
                CHANNELS 3 Zrotation Xrotation Yrotation
                JOINT lIndex2
                {
                  OFFSET 2.54057 -0.884171 1.56538
                  CHANNELS 3 Zrotation Xrotation Yrotation
                  End Site
                  {
                    OFFSET 1.62519 -0.234802 1.16502
                  }
                }
              }
              JOINT lMid1
              {
                OFFSET 8.24714 1.18213 3.41376
                CHANNELS 3 Zrotation Xrotation Yrotation
                JOINT lMid2
                {
                  OFFSET 3.10165 -0.590103 1.0647
                  CHANNELS 3 Zrotation Xrotation Yrotation
                  End Site
                  {
                    OFFSET 2.48547 -0.328903 0.83742
                  }
                }
              }
              JOINT lRing1
              {
                OFFSET 8.82822 0.546677 1.51678
                CHANNELS 3 Zrotation Xrotation Yrotation
                JOINT lRing2
                {
                  OFFSET 2.60934 -0.819778 -0.0198488
                  CHANNELS 3 Zrotation Xrotation Yrotation
                  End Site
                  {
                    OFFSET 2.33842 -0.294052 0.168128
                  }
                }
              }
              JOINT lPinky1
              {
                OFFSET 8.27202 -0.0477905 -0.4584
                CHANNELS 3 Zrotation Xrotation Yrotation
                JOINT lPinky2
                {
                  OFFSET 1.82734 -0.647385 -0.700984
                  CHANNELS 3 Zrotation Xrotation Yrotation
                  End Site
                  {
                    OFFSET 1.69225 -0.51767 -0.607171
                  }
                }
              }
            }
          }
        }
      }
    }
  }
  JOINT rButtock
  {
    OFFSET -8.77824 4.35084 1.2192
    CHANNELS 3 Zrotation Xrotation Yrotation
    JOINT rThigh
    {
      OFFSET 0 -1.70687 -2.19456
      CHANNELS 3 Zrotation Xrotation Yrotation
      JOINT rShin
      {
        OFFSET 0 -36.8199 0.73152
        CHANNELS 3 Zrotation Xrotation Yrotation
        JOINT rFoot
        {
          OFFSET 0.73152 -45.1104 -5.12064
          CHANNELS 3 Zrotation Xrotation Yrotation
          End Site
          {
            OFFSET -1.1221 -3.69964 12.103
          }
        }
      }
    }
  }
  JOINT lButtock
  {
    OFFSET 8.77824 4.35084 1.2192
    CHANNELS 3 Zrotation Xrotation Yrotation
    JOINT lThigh
    {
      OFFSET 0 -1.70687 -2.19456
      CHANNELS 3 Zrotation Xrotation Yrotation
      JOINT lShin
      {
        OFFSET 0 -36.8199 0.73152
        CHANNELS 3 Zrotation Xrotation Yrotation
        JOINT lFoot
        {
          OFFSET -0.73152 -45.1104 -5.12064
          CHANNELS 3 Zrotation Xrotation Yrotation
          End Site
          {
            OFFSET 1.1221 -3.69964 12.103
          }
        }
      }
    }
  }
}
MOTION
Frames:	4
Frame Time:	0.03333
0.0 0.0 0.0 0.0 0.0 0.0 0.0 0.0 0.0 0.0 0.0 0.0 0.0 0.0 0.0 0.0 0.0 0.0 0.0 0.0 0.0 0.0 0.0 0.0 0.0 0.0 0.0 0.0 0.0 0.0 0.0 0.0 0.0 0.0 0.0 0.0 0.0 0.0 0.0 0.0 0.0 0.0 0.0 0.0 0.0 0.0 0.0 0.0 0.0 0.0 0.0 0.0 0.0 0.0 0.0 0.0 0.0 0.0 0.0 0.0 0.0 0.0 0.0 0.0 0.0 0.0 0.0 0.0 0.0 0.0 0.0 0.0 0.0 0.0 0.0 0.0 0.0 0.0 0.0 0.0 0.0 0.0 0.0 0.0 0.0 0.0 0.0 0.0 0.0 0.0 0.0 0.0 0.0 0.0 0.0 0.0 0.0 0.0 0.0 0.0 0.0 0.0 0.0 0.0 0.0 0.0 0.0 0.0 0.0 0.0 0.0 0.0 0.0 0.0 0.0 0.0 0.0 0.0 0.0 0.0 0.0 0.0 0.0 0.0 0.0 0.0 0.0 0.0 0.0 0.0 0.0 0.0
-2.4119 70.65360000000001 0.13949999999999999 -13.581866 58.148967 -8.996119 9.393499 18.204861 152.097585 -4.136113 2.958363 -157.234528 -0.190429 13.475866 14.726174 -4.790531 -31.389003 8.60767 -0.003607 -0.0 0.000714 0.002085 0.0 0.000326 -142.974023 39.431798 147.39042 65.379203 -15.957402 77.672533 -172.452066 37.776062 38.55648 -142.39316 30.153385 127.849957 -95.361472 37.749779 54.681965 28.531824 -32.296086 23.36597 -69.680949 43.292054 57.343099 -4.14896 15.492451 -0.340591 -0.200915 0.580001 0.110842 -158.731199 8.452257 141.443721 -75.672858 -72.116429 -92.828844 -150.982123 0.170408 176.409489 -146.224005 15.470184 -142.74891 -148.428343 14.079747 -142.239373 33.840901 -85.665569 55.25794 41.847864 -49.605242 111.944226 151.042176 -40.396436 106.1707 2.216519 -9.211129 2.27891 176.598569 -14.213122 -89.690089 77.90047 8.118884 -24.788358 155.194755 -24.300337 -122.140908 -145.582278 -67.26793 -86.770842 -2.10014 -6.305407 1.08155 162.179277 -1.381161 -142.961825 145.117326 0.185748 179.186042 -11.946009 30.644174 5.527249 25.536358 -38.087667 24.59878 146.2682 10.526202 143.115834 -179.999839 75.750459 0.0 -175.665922 43.656842 65.072218 72.22617 7.225096 10.406428 -51.035735 85.519972 -52.543157 -0.000713 0.000852 -0.000357 106.719772 -73.483413 25.604464 -129.461386 1.008209 -82.548298 87.794531 23.081941 178.673903
-2.8508 72.01920000000001 0.1854 -13.778054 58.663423 -11.819648 10.402776 22.034373 167.761921 -2.214532 4.55607 -173.842993 -4.819665 13.762084 -10.11062 15.822787 -30.392522 38.715343 0.000379 0.0 0.001755 0.000379 0.0 0.001755 -3.907689 18.449293 4.803817 -97.97338 -20.338166 -160.404853 95.917118 -31.500874 -102.779932 -41.681929 30.404965 22.899729 -93.74425 37.962754 53.547834 -110.17959 -10.756355 70.971412 -108.427807 34.161104 91.74294 12.029839 -10.220689 -7.43282 0.289279 -0.849926 -0.15868 -159.245184 7.059026 141.698463 -0.060144 -3.510169 -1.105307 -56.63671 -86.734413 -78.444885 -26.562988 -38.860927 -25.606435 15.5583 41.650233 8.048953 152.128805 14.113039 -157.556319 -66.731282 59.350076 119.83558 -126.120348 19.988594 81.800425 34.056151 48.645213 -15.515253 176.599376 -14.212748 -89.690478 135.877149 12.879689 -69.012491 120.30949 25.99761 -101.631856 65.656207 55.027684 -45.710642 125.64425 49.839582 -115.273312 -3.047748 1.053378 -0.390517 -0.000781 0.022403 -0.008525 -6.143236 33.72279 -5.588968 -6.228365 18.789623 -5.572751 9.270556 -24.226234 10.318332 0.002332 -0.000805 0.001166 4.584057 -27.661941 2.212515 21.966802 60.905805 14.027631 -69.250632 23.551443 -20.428721 0.003018 0.000181 0.003018 130.857054 -73.596811 180.0 144.442151 35.538169 56.38084 64.701402 25.02016 -176.802149
-3.0052 73.36510000000001 0.2255 -13.472022 58.726503 -15.792147 10.990308 32.664214 -0.0 -0.132011 -10.476281 -6.64032 -3.699816 13.241515 -4.230404 11.370382 -32.579833 31.649589 0.001797 -0.0 -0.002008 -0.003079 -0.0 0.00268 2.459977 -18.216247 -3.670226 -81.454221 -32.587524 -117.719487 90.707427 -32.397878 -101.866896 -46.691176 35.519126 28.19943 -67.034452 37.762331 34.644131 -134.639802 -27.088151 85.871622 -39.689777 37.280854 30.589734 -86.427304 49.459221 64.015659 68.986756 -80.152994 40.5799 32.069521 -62.673013 8.690859 -0.008278 -0.872525 -0.272679 7.156121 28.728379 4.463489 -6.25899 -14.052164 -5.88515 -145.982002 8.204384 -142.806497 155.417137 -2.951644 -161.717951 -175.917519 -26.684011 114.133912 -164.978474 -10.766734 -58.08753 163.12413 21.333513 -136.556348 -178.619304 -18.760136 -89.03921 32.0554 -30.592641 1.852332 -0.184036 -0.300456 0.104986 -174.991094 -41.241738 -102.973739 169.090238 -33.247254 -145.375129 -2.993795 0.377745 -0.389552 -0.005673 1.687696 -0.529062 155.585222 -1.614132 -172.040999 145.545083 13.244785 142.148289 25.727435 -40.237873 27.031505 -0.0 -0.000538 -0.000111 5.1853 -22.523759 2.086318 10.603535 71.393097 -151.845626 32.544848 14.053524 127.688236 -0.0 0.00098 0.000205 144.753307 -68.266942 38.615927 -136.365107 -18.368165 -98.737983 -22.937854 11.599072 177.297819
